<mxfile host="app.diagrams.net" modified="2024-06-20T19:45:47.893Z" agent="Mozilla/5.0 (Windows NT 10.0; Win64; x64) AppleWebKit/537.36 (KHTML, like Gecko) Chrome/125.0.0.0 Safari/537.36" etag="zDV7jF37OO_bSnNJbTz8" version="24.5.5" type="github">
  <diagram name="Page-1" id="wuHofpRlIjOz16M0MwDM">
    <mxGraphModel dx="2067" dy="523" grid="1" gridSize="10" guides="1" tooltips="1" connect="1" arrows="1" fold="1" page="1" pageScale="1" pageWidth="850" pageHeight="1100" math="0" shadow="0">
      <root>
        <mxCell id="0" />
        <mxCell id="1" parent="0" />
        <mxCell id="8H5cPtk94cY6zMzIsbHH-1" value="" style="whiteSpace=wrap;html=1;aspect=fixed;" parent="1" vertex="1">
          <mxGeometry x="160" y="100" width="490" height="490" as="geometry" />
        </mxCell>
        <mxCell id="8H5cPtk94cY6zMzIsbHH-2" value="Read Register 1" style="text;html=1;align=center;verticalAlign=middle;whiteSpace=wrap;rounded=0;" parent="1" vertex="1">
          <mxGeometry x="170" y="130" width="60" height="30" as="geometry" />
        </mxCell>
        <mxCell id="8H5cPtk94cY6zMzIsbHH-3" value="" style="endArrow=classic;html=1;rounded=0;" parent="1" edge="1">
          <mxGeometry width="50" height="50" relative="1" as="geometry">
            <mxPoint x="10" y="140" as="sourcePoint" />
            <mxPoint x="160" y="140" as="targetPoint" />
          </mxGeometry>
        </mxCell>
        <mxCell id="8H5cPtk94cY6zMzIsbHH-4" value="" style="endArrow=classic;html=1;rounded=0;entryX=-0.009;entryY=0.391;entryDx=0;entryDy=0;entryPerimeter=0;" parent="1" edge="1">
          <mxGeometry width="50" height="50" relative="1" as="geometry">
            <mxPoint x="15.04" y="264.54" as="sourcePoint" />
            <mxPoint x="160.00000000000003" y="264.50000000000006" as="targetPoint" />
          </mxGeometry>
        </mxCell>
        <mxCell id="8H5cPtk94cY6zMzIsbHH-6" value="" style="endArrow=classic;html=1;rounded=0;" parent="1" edge="1">
          <mxGeometry width="50" height="50" relative="1" as="geometry">
            <mxPoint x="13" y="490" as="sourcePoint" />
            <mxPoint x="160" y="491" as="targetPoint" />
            <Array as="points">
              <mxPoint x="133" y="491" />
            </Array>
          </mxGeometry>
        </mxCell>
        <mxCell id="8H5cPtk94cY6zMzIsbHH-7" value="" style="endArrow=none;html=1;rounded=0;" parent="1" edge="1">
          <mxGeometry width="50" height="50" relative="1" as="geometry">
            <mxPoint x="560" y="100" as="sourcePoint" />
            <mxPoint x="560" as="targetPoint" />
            <Array as="points">
              <mxPoint x="560" y="60" />
            </Array>
          </mxGeometry>
        </mxCell>
        <mxCell id="8H5cPtk94cY6zMzIsbHH-10" value="Read Register 2" style="text;html=1;align=center;verticalAlign=middle;whiteSpace=wrap;rounded=0;" parent="1" vertex="1">
          <mxGeometry x="160" y="250" width="60" height="30" as="geometry" />
        </mxCell>
        <mxCell id="8H5cPtk94cY6zMzIsbHH-11" value="Write register" style="text;html=1;align=center;verticalAlign=middle;whiteSpace=wrap;rounded=0;" parent="1" vertex="1">
          <mxGeometry x="170" y="390" width="60" height="30" as="geometry" />
        </mxCell>
        <mxCell id="8H5cPtk94cY6zMzIsbHH-15" value="write enable" style="text;html=1;align=center;verticalAlign=middle;whiteSpace=wrap;rounded=0;" parent="1" vertex="1">
          <mxGeometry x="530" y="115" width="60" height="30" as="geometry" />
        </mxCell>
        <mxCell id="8H5cPtk94cY6zMzIsbHH-16" value="" style="endArrow=classic;html=1;rounded=0;" parent="1" edge="1">
          <mxGeometry width="50" height="50" relative="1" as="geometry">
            <mxPoint x="650" y="260" as="sourcePoint" />
            <mxPoint x="760" y="260" as="targetPoint" />
          </mxGeometry>
        </mxCell>
        <mxCell id="8H5cPtk94cY6zMzIsbHH-17" value="" style="endArrow=classic;html=1;rounded=0;" parent="1" edge="1">
          <mxGeometry width="50" height="50" relative="1" as="geometry">
            <mxPoint x="650" y="480" as="sourcePoint" />
            <mxPoint x="770" y="480" as="targetPoint" />
          </mxGeometry>
        </mxCell>
        <mxCell id="8H5cPtk94cY6zMzIsbHH-18" value="write_data" style="text;html=1;align=center;verticalAlign=middle;whiteSpace=wrap;rounded=0;" parent="1" vertex="1">
          <mxGeometry x="170" y="470" width="60" height="30" as="geometry" />
        </mxCell>
        <mxCell id="8H5cPtk94cY6zMzIsbHH-19" value="read_data_1" style="text;html=1;align=center;verticalAlign=middle;whiteSpace=wrap;rounded=0;" parent="1" vertex="1">
          <mxGeometry x="580" y="240" width="60" height="30" as="geometry" />
        </mxCell>
        <mxCell id="8H5cPtk94cY6zMzIsbHH-20" value="read_data_2" style="text;html=1;align=center;verticalAlign=middle;whiteSpace=wrap;rounded=0;" parent="1" vertex="1">
          <mxGeometry x="580" y="460" width="60" height="30" as="geometry" />
        </mxCell>
        <mxCell id="8H5cPtk94cY6zMzIsbHH-21" value="&lt;div&gt;&lt;font face=&quot;Helvetica&quot; style=&quot;font-size: 18px;&quot;&gt;&lt;div style=&quot;&quot;&gt;&lt;span style=&quot;background-color: initial;&quot;&gt;logic [31:0] reg_file [31:0],&lt;/span&gt;&lt;br&gt;&lt;/div&gt;&lt;/font&gt;&lt;/div&gt;&lt;font face=&quot;g4V9aiBi4kP1bZjgguHr&quot; size=&quot;3&quot; style=&quot;&quot;&gt;&lt;div&gt;assign reg_file[0] = 0&lt;/div&gt;&lt;div&gt;&amp;nbsp;&lt;/div&gt;If (!nrst)&lt;/font&gt;&lt;div&gt;&lt;font face=&quot;g4V9aiBi4kP1bZjgguHr&quot; size=&quot;3&quot;&gt;&lt;span style=&quot;white-space: pre;&quot;&gt;&#x9;&lt;/span&gt;reg_file &amp;lt;= &#39;0&lt;br&gt;&lt;/font&gt;&lt;div&gt;&lt;font face=&quot;g4V9aiBi4kP1bZjgguHr&quot; size=&quot;3&quot;&gt;&lt;span style=&quot;background-color: initial; white-space: pre;&quot;&gt;&#x9;&lt;/span&gt;&lt;span style=&quot;background-color: initial;&quot;&gt;if(enable)&amp;nbsp;&lt;/span&gt;&lt;br&gt;&lt;/font&gt;&lt;/div&gt;&lt;div&gt;&lt;font face=&quot;g4V9aiBi4kP1bZjgguHr&quot; size=&quot;3&quot;&gt;&lt;span style=&quot;white-space: pre;&quot;&gt;&#x9;&lt;span style=&quot;white-space: pre;&quot;&gt;&#x9;&lt;/span&gt;&lt;/span&gt;data write[write_register] = data write&lt;/font&gt;&lt;/div&gt;&lt;/div&gt;&lt;div&gt;&lt;font face=&quot;g4V9aiBi4kP1bZjgguHr&quot; size=&quot;3&quot;&gt;&lt;br&gt;&lt;/font&gt;&lt;/div&gt;&lt;div&gt;&lt;div style=&quot;&quot;&gt;&lt;font face=&quot;g4V9aiBi4kP1bZjgguHr&quot; size=&quot;3&quot;&gt;&lt;span style=&quot;background-color: initial; white-space: pre;&quot;&gt;data&lt;/span&gt;&lt;span style=&quot;background-color: initial;&quot;&gt;&amp;nbsp;read 0 = read register 0;&lt;/span&gt;&lt;/font&gt;&lt;/div&gt;&lt;div style=&quot;&quot;&gt;&lt;font face=&quot;g4V9aiBi4kP1bZjgguHr&quot; size=&quot;3&quot;&gt;data read 1 = read register 1;&lt;/font&gt;&lt;/div&gt;&lt;/div&gt;" style="text;html=1;whiteSpace=wrap;overflow=hidden;rounded=0;" parent="1" vertex="1">
          <mxGeometry x="240" y="155" width="320" height="215" as="geometry" />
        </mxCell>
        <mxCell id="8H5cPtk94cY6zMzIsbHH-22" value="" style="endArrow=classic;html=1;rounded=0;" parent="1" edge="1">
          <mxGeometry width="50" height="50" relative="1" as="geometry">
            <mxPoint x="30" y="400" as="sourcePoint" />
            <mxPoint x="160" y="400" as="targetPoint" />
          </mxGeometry>
        </mxCell>
        <mxCell id="8H5cPtk94cY6zMzIsbHH-24" value="reg 0" style="rounded=0;whiteSpace=wrap;html=1;" parent="1" vertex="1">
          <mxGeometry x="280" y="380" width="190" height="20" as="geometry" />
        </mxCell>
        <mxCell id="8H5cPtk94cY6zMzIsbHH-25" value="reg 1" style="rounded=0;whiteSpace=wrap;html=1;" parent="1" vertex="1">
          <mxGeometry x="280" y="400" width="190" height="20" as="geometry" />
        </mxCell>
        <mxCell id="8H5cPtk94cY6zMzIsbHH-26" style="edgeStyle=orthogonalEdgeStyle;rounded=0;orthogonalLoop=1;jettySize=auto;html=1;exitX=0.5;exitY=1;exitDx=0;exitDy=0;" parent="1" source="8H5cPtk94cY6zMzIsbHH-25" target="8H5cPtk94cY6zMzIsbHH-25" edge="1">
          <mxGeometry relative="1" as="geometry" />
        </mxCell>
        <mxCell id="8H5cPtk94cY6zMzIsbHH-27" value="reg 2" style="rounded=0;whiteSpace=wrap;html=1;" parent="1" vertex="1">
          <mxGeometry x="280" y="420" width="190" height="20" as="geometry" />
        </mxCell>
        <mxCell id="8H5cPtk94cY6zMzIsbHH-29" value="reg 3" style="rounded=0;whiteSpace=wrap;html=1;" parent="1" vertex="1">
          <mxGeometry x="280" y="440" width="190" height="20" as="geometry" />
        </mxCell>
        <mxCell id="8H5cPtk94cY6zMzIsbHH-30" value="reg 30" style="rounded=0;whiteSpace=wrap;html=1;" parent="1" vertex="1">
          <mxGeometry x="280" y="530" width="190" height="20" as="geometry" />
        </mxCell>
        <mxCell id="8H5cPtk94cY6zMzIsbHH-31" value="reg 31" style="rounded=0;whiteSpace=wrap;html=1;" parent="1" vertex="1">
          <mxGeometry x="280" y="550" width="190" height="20" as="geometry" />
        </mxCell>
        <mxCell id="DQG7pjrKMhIXRIExHFe8-1" value="................." style="text;html=1;align=center;verticalAlign=middle;whiteSpace=wrap;rounded=0;" parent="1" vertex="1">
          <mxGeometry x="345" y="480" width="60" height="30" as="geometry" />
        </mxCell>
        <mxCell id="8nCNz-82o0ZJ2Y-EGQQ4-1" value="" style="triangle;whiteSpace=wrap;html=1;rotation=-90;" vertex="1" parent="1">
          <mxGeometry x="230" y="560" width="30" height="30" as="geometry" />
        </mxCell>
        <mxCell id="8nCNz-82o0ZJ2Y-EGQQ4-3" value="" style="endArrow=none;html=1;rounded=0;" edge="1" parent="1">
          <mxGeometry width="50" height="50" relative="1" as="geometry">
            <mxPoint x="244.87" y="660" as="sourcePoint" />
            <mxPoint x="244.87" y="590" as="targetPoint" />
          </mxGeometry>
        </mxCell>
        <mxCell id="8nCNz-82o0ZJ2Y-EGQQ4-4" value="Clock" style="text;html=1;align=center;verticalAlign=middle;whiteSpace=wrap;rounded=0;" vertex="1" parent="1">
          <mxGeometry x="180" y="560" width="60" height="30" as="geometry" />
        </mxCell>
        <mxCell id="8nCNz-82o0ZJ2Y-EGQQ4-5" value="[31:0]" style="text;html=1;align=center;verticalAlign=middle;whiteSpace=wrap;rounded=0;" vertex="1" parent="1">
          <mxGeometry x="670" y="230" width="60" height="30" as="geometry" />
        </mxCell>
        <mxCell id="8nCNz-82o0ZJ2Y-EGQQ4-6" value="[31:0]" style="text;html=1;align=center;verticalAlign=middle;whiteSpace=wrap;rounded=0;" vertex="1" parent="1">
          <mxGeometry x="670" y="440" width="60" height="30" as="geometry" />
        </mxCell>
        <mxCell id="8nCNz-82o0ZJ2Y-EGQQ4-7" value="read_addr_1 [4:0]" style="text;html=1;align=center;verticalAlign=middle;whiteSpace=wrap;rounded=0;" vertex="1" parent="1">
          <mxGeometry x="-30" y="110" width="220" height="30" as="geometry" />
        </mxCell>
        <mxCell id="8nCNz-82o0ZJ2Y-EGQQ4-8" value="read_addr_2 [4:0]" style="text;html=1;align=center;verticalAlign=middle;whiteSpace=wrap;rounded=0;" vertex="1" parent="1">
          <mxGeometry x="20" y="230" width="130" height="30" as="geometry" />
        </mxCell>
      </root>
    </mxGraphModel>
  </diagram>
</mxfile>
